<svg id="svg" version="1.1" viewBox="0 0 300 269.4943820224719" width="300" height="269.4943820224719" xmlns="http://www.w3.org/2000/svg"><svg xmlns="http://www.w3.org/2000/svg"><defs><clipPath id="clip-1"><rect x="0" y="0" transform="scale(0.14648,0.14646)" width="2048" height="1840" fill="none"/></clipPath><linearGradient x1="162.09082" y1="153.77877" x2="148.21729" y2="120.97134" gradientUnits="userSpaceOnUse" id="color-1"><stop offset="0" stop-color="#1a3a28"/><stop offset="1" stop-color="#2d5f4b"/></linearGradient><linearGradient x1="68.92969" y1="243.15131" x2="65.46357" y2="231.9834" gradientUnits="userSpaceOnUse" id="color-2"><stop offset="0" stop-color="#12322b"/><stop offset="1" stop-color="#346744"/></linearGradient><linearGradient x1="87.11309" y1="143.6137" x2="95.82539" y2="142.43759" gradientUnits="userSpaceOnUse" id="color-3"><stop offset="0" stop-color="#103620"/><stop offset="1" stop-color="#3b5745"/></linearGradient><linearGradient x1="106.22153" y1="214.25975" x2="105.39829" y2="212.56076" gradientUnits="userSpaceOnUse" id="color-4"><stop offset="0" stop-color="#2d5748"/><stop offset="1" stop-color="#3f7155"/></linearGradient><linearGradient x1="89.89541" y1="107.86732" x2="95.0376" y2="108.85684" gradientUnits="userSpaceOnUse" id="color-5"><stop offset="0" stop-color="#1a3928"/><stop offset="1" stop-color="#305f46"/></linearGradient><linearGradient x1="97.46924" y1="220.84186" x2="96.50054" y2="216.60757" gradientUnits="userSpaceOnUse" id="color-6"><stop offset="0" stop-color="#274d42"/><stop offset="1" stop-color="#487b5c"/></linearGradient><linearGradient x1="139.77319" y1="194.4651" x2="138.77212" y2="192.97848" gradientUnits="userSpaceOnUse" id="color-7"><stop offset="0" stop-color="#2e5244"/><stop offset="1" stop-color="#3d6b54"/></linearGradient><linearGradient x1="59.47295" y1="233.21663" x2="60.66123" y2="228.90765" gradientUnits="userSpaceOnUse" id="color-8"><stop offset="0" stop-color="#0d2a1e"/><stop offset="1" stop-color="#224a2f"/></linearGradient></defs><g clip-path="url(#clip-1)" fill="none" fill-rule="nonzero" stroke="none" stroke-width="1" stroke-linecap="butt" stroke-linejoin="miter" stroke-miterlimit="10" stroke-dasharray="" stroke-dashoffset="0" font-family="none" font-weight="none" font-size="none" text-anchor="none" style="mix-blend-mode: normal"><path d="M102.44414,164.74895c0.39902,-2.17207 0.76816,-4.30459 1.33286,-6.4459c0.69346,-2.62757 1.59053,-5.19948 2.2916,-7.82852c1.17217,-4.39715 5.32734,-22.07554 8.05986,-24.09705c0.33618,-0.24855 0.71367,-0.30333 1.12163,-0.23537c0.56909,0.09491 1.11855,0.46136 1.44243,0.93474c0.89854,1.31261 1.1644,3.25414 1.4666,4.79129c0.63794,3.24492 1.02656,6.62253 1.22915,9.92281c0.36108,5.87732 0.09976,15.65821 3.06445,20.74638c0.62886,1.07944 1.40039,1.83227 2.40234,2.56459c0.13125,0.40278 0.14238,0.37055 0.48823,0.63126c0.32534,0.02343 0.65112,0.03955 0.9772,0.0454c0.32344,0.39545 0.39053,0.71475 0.81445,0.96813c0.22368,0.49651 0.26748,0.37641 0.13652,0.76015c-0.5833,0.17869 -1.05483,0.06005 -1.52358,0.37788c-4.21406,-2.84727 -5.66631,-4.17716 -6.76978,-9.47917c-0.95874,-4.6063 -0.94102,-8.94018 -1.12456,-13.62323c-0.0646,-1.64772 -1.0333,-16.14432 -3.03047,-16.01397c-2.65283,1.85819 -9.85093,30.59069 -10.67666,35.34639c-0.1062,0.60636 -0.20127,1.21565 -0.28506,1.82641c1.33418,1.29621 3.01538,1.98752 4.598,2.9659c5.28633,3.27201 13.45972,6.60847 13.98325,13.7325c0.21006,2.85898 -1.38677,5.8161 -3.29956,7.99549c-4.29756,4.8963 -9.36079,6.08413 -14.43062,1.41485c-2.13135,-1.96262 -3.51079,-5.57443 -3.84829,-8.53887c-1.06011,-2.67004 0.56587,-13.60654 1.02495,-16.69693c-0.99976,-0.88172 -2.30815,-1.67555 -3.66021,-2.91025c1.89917,-1.15267 3.06812,1.13803 3.97222,1.14682zM102.46641,182.33492c0.39653,3.11383 1.19238,6.31847 3.66592,8.51837c1.41592,1.26692 3.28813,1.90111 5.18232,1.75318c2.97715,-0.22263 4.65278,-1.75025 6.58081,-3.87398c9.46567,-10.4224 -8.12886,-15.71855 -14.4,-20.8448l-0.10503,-0.08788c-1.05176,3.35403 -1.32319,10.9819 -0.92402,14.53512z" fill="#1c3f2c"/><path d="M101.88911,166.81409c1.24233,0.28414 0.49629,0.39692 1.50132,0.9857c-1.05176,3.35403 -1.32319,10.9819 -0.92402,14.53512c-0.36709,0.11864 -0.73184,0.24313 -1.09453,0.37495l-0.27393,-0.19773l0.04395,-0.145c0.55532,-0.08202 0.75835,-0.01318 1.11738,-0.31343l-0.12861,-0.19187c-0.61392,0.00439 -0.73418,0.0996 -1.31719,0.35151c0.09302,0.37788 0.1585,0.68692 0.23115,1.06919l-0.18047,0.22848c-1.06011,-2.67004 0.56587,-13.60654 1.02495,-16.69693z" fill="#204531"/><path d="M121.26475,124.08195c-1.03916,-1.79888 -0.26426,-1.21668 -0.58286,-2.50146c-0.32637,-1.31642 -1.88745,-3.49698 -1.36362,-5.05273c2.21455,4.07903 5.00581,7.81578 7.31865,11.83198c1.56431,2.71647 3.06709,5.50559 4.50249,8.29164c1.38442,2.68689 7.44229,16.04356 9.70005,16.88866c0.04263,0.01465 0.08862,0.02051 0.13286,0.03076c-0.07002,-7.38869 -5.72812,-17.11743 -8.66953,-23.87339c-1.28716,-2.95653 -2.64829,-5.97106 -4.01426,-8.8917c-0.54111,-1.15707 -1.73071,-2.04977 -0.95874,-3.4277c2.19185,-1.52938 3.23994,2.9577 3.77446,4.32114c0.44253,1.12909 1.18726,2.43116 1.55815,3.51544c-0.00996,1.23177 0.25986,1.86786 0.40254,3.0097c0.45308,0.49329 3.51548,5.3644 3.60176,5.88157c-0.11353,0.35693 -0.10635,0.39545 -0.31318,0.70039c0.2751,0.49915 0.50903,1.12572 1.01865,1.28303c0.10166,1.20965 2.05664,4.45442 2.59409,5.96271c1.12866,3.16744 2.42197,6.64743 3.12905,9.93116c0.13564,1.06187 0.69067,4.22257 -0.11191,5.03837c-2.077,2.11055 -4.81069,-2.96444 -5.47192,-4.08782c-4.75474,-8.0778 -8.28618,-16.64523 -13.34663,-24.56163c-1.11958,-1.75127 -1.60752,-2.65921 -2.9001,-4.29009z" fill="#204531"/><path d="M219.94922,147.98903c1.46924,0.48626 2.17236,-1.10434 3.63135,-0.87586c0.17432,0.02636 0.27979,0.42475 0.375,0.64298c-3.95068,1.82055 -8.37891,4.96075 -12.37061,6.88675c-0.55811,0.26949 -2.37158,1.26692 -2.85205,1.41045c-1.30664,0.90076 -3.34424,1.92601 -4.77686,2.71984l-9.94482,5.40307l-23.89893,13.09977c-7.17627,3.95161 -14.21924,8.22251 -21.48486,12.02912c-1.26562,0.66348 -3.18472,2.07686 -4.21846,2.506c0.83804,-1.89232 1.05425,-0.90368 2.27461,-1.9758l-0.02783,-0.11717c-0.82793,0.05566 -1.88174,0.86121 -2.43677,1.48661c-0.54419,-0.06298 -1.30342,-0.08641 -1.86724,-0.12157c3.01362,-1.92454 6.37676,-3.53711 9.51445,-5.33423c9.03516,-5.17312 18.12598,-10.29791 27.27539,-15.26451c1.03271,-0.56096 2.14307,-1.02379 3.16846,-1.59207l15.2959,-8.41291c1.59814,-0.89636 4.24365,-2.79015 5.70117,-3.40237l0.27246,-0.1201c1.61719,-1.09409 5.22217,-2.79747 7.08105,-3.70701c0.43652,-0.33247 2.13574,-1.18197 2.73193,-1.51884c2.16064,-1.22298 4.48975,-2.37126 6.55664,-3.74216z" fill="#39624d"/><path d="M219.94922,147.98903c1.46924,0.48626 2.17236,-1.10434 3.63135,-0.87586c0.17432,0.02636 0.27979,0.42475 0.375,0.64298c-3.95068,1.82055 -8.37891,4.96075 -12.37061,6.88675c-0.55811,0.26949 -2.37158,1.26692 -2.85205,1.41045c-1.36084,-0.04687 -9.14648,4.67221 -11.28955,5.58615c0.00146,0 0.00146,-0.00146 0.00146,-0.00293l-0.01904,-0.20066l0.16992,0.14646l-0.02637,-0.23874l0.1582,0.18601l0.02344,-0.30025c1.22168,-0.68692 1.3667,-0.67081 2.4917,-1.08823c0.65186,-0.24167 2.80371,-2.30535 3.06445,-3.06403l0.27246,-0.1201c1.61719,-1.09409 5.22217,-2.79747 7.08105,-3.70701c0.43652,-0.33247 2.13574,-1.18197 2.73193,-1.51884c2.16064,-1.22298 4.48975,-2.37126 6.55664,-3.74216z" fill="#3d6c55"/><path d="M210.66064,153.25003c-1.0459,1.5906 -3.32959,2.74621 -4.78857,3.68504l-2.29248,0.02197c1.61719,-1.09409 5.22217,-2.79747 7.08105,-3.70701z" fill="#39624d"/><path d="M85.76265,144.71453c0.53906,0.10765 1.63506,0.19158 1.98545,0.39326c0.05537,0.36763 0.0769,0.23127 -0.03955,0.56828l-0.50142,-0.19143c-0.26631,0.25704 -0.40796,2.54394 -0.57861,3.11076c-1.47026,4.88459 -2.33628,11.21331 -4.04956,15.90163c-0.71206,2.61878 -1.38662,5.42504 -2.14219,8.00135c-5.55322,18.31244 -12.15132,36.29093 -19.76191,53.84761c-0.55767,1.31379 -1.63857,3.07868 -0.80947,4.38368l-0.17886,0.24313c-1.0856,-0.17576 -0.86118,-0.40717 -2.02998,-0.13768c0.31655,-1.12338 0.21885,-2.12666 0.74531,-3.32913c6.42803,-14.68305 12.50801,-29.55943 17.46064,-44.83273c1.85112,-5.86297 3.56001,-11.76841 5.1252,-17.7134c0.49468,-2.26141 1.2498,-4.86555 1.82856,-7.15185c1.11372,-4.40125 2.00889,-8.66483 2.94639,-13.09347z" fill="#204531"/><path d="M127.95952,166.73793c1.61558,0.39252 3.14224,1.13656 4.78066,1.45146c2.37173,0.45697 4.84116,0.30611 7.20659,0.64884c1.76719,0.25631 1.84717,1.27131 1.15195,2.64222c-5.01855,3.45363 -14.79111,12.64573 -15.22778,-0.34712c-0.03545,-1.05308 -0.01304,-2.20575 -0.12305,-3.24858c0.46875,-0.31783 0.94028,-0.19919 1.52358,-0.37788c0.13096,-0.38374 0.08716,-0.26364 -0.13652,-0.76015zM135.66489,172.81474c1.33784,-0.78651 2.05078,-1.17464 3.4853,-1.80444c-2.64521,-0.31197 -5.27842,-0.58293 -7.89785,-1.1307c-0.85078,-0.17722 -3.01274,-1.15121 -3.45674,-1.21419c-0.71396,1.08237 0.6791,6.37413 1.70991,7.12842c1.36787,0.08934 4.96626,-2.18671 6.15937,-2.97908z" fill="#204531"/><path d="M132.6624,125.21456c3.12656,5.15774 6.14678,9.14113 9.88389,13.8958c0.55122,0.70142 2.69561,3.0674 2.94507,3.49186c4.16587,4.15651 9.08628,7.25277 15.18149,7.22933c4.10449,0.00732 8.17236,-0.75429 11.99414,-2.24676c2.53711,0.82459 6.15234,-2.84199 8.27783,-3.99862c0.85107,-0.46356 0.68115,-0.5633 1.58057,-0.36499c-1.72998,1.50228 -3.04834,2.44625 -4.96143,3.7221c-0.2417,0.20212 -0.49512,0.39106 -0.75879,0.56535c-5.82129,3.85201 -13.6626,5.46751 -20.49756,3.9809c-8.25732,-1.79419 -14.43091,-8.91587 -18.81313,-15.70757l-0.12231,0.30728c-0.50962,-0.1573 -0.74355,-0.78388 -1.01865,-1.28303c0.20684,-0.30494 0.19966,-0.34346 0.31318,-0.70039c-0.08628,-0.51717 -3.14868,-5.38828 -3.60176,-5.88157c-0.14268,-1.14184 -0.4125,-1.77793 -0.40254,-3.0097z" fill="url(#color-1)"/><path d="M177.56396,146.94328c-0.52881,-0.51263 -0.62256,-0.15818 -1.23633,0.15086c-3.23145,1.45146 -8.2793,3.73923 -11.84766,3.98969c-3.2666,0.22848 -8.78906,-0.03222 -11.69531,-1.84252c-1.27002,-0.79091 -3.23877,-1.31525 -3.97559,-2.62025c-0.78955,-1.39932 -3.31772,-2.26917 -3.31772,-4.01883c4.16587,4.15651 9.08628,7.25277 15.18149,7.22933c4.10449,0.00732 8.17236,-0.75429 11.99414,-2.24676c2.53711,0.82459 6.15234,-2.84199 8.27783,-3.99862c0.85107,-0.46356 0.68115,-0.5633 1.58057,-0.36499c-1.72998,1.50228 -3.04834,2.44625 -4.96143,3.7221z" fill="#2a513d"/><path d="M92.04404,220.67196l0.7478,1.7107c-1.20059,0.76747 -5.28911,3.47413 -6.38789,3.956c-0.68789,0.51702 -1.90356,1.37676 -2.71714,1.65065c-7.5123,4.6312 -14.9458,9.39129 -22.29727,14.27441c-2.91899,1.96995 -5.73604,3.9355 -8.49229,6.12367c-0.50186,0.39838 -0.91479,0.51702 -1.52754,0.37788c-1.17979,-1.57449 2.95884,-3.93696 4.17715,-4.79671l15.10869,-10.64796c1.1001,-0.78358 5.88457,-4.40565 6.86382,-4.76448c2.4542,-2.20722 5.05415,-2.53676 8.00771,-3.83151c0.15659,-0.24606 5.94727,-3.75681 6.51694,-4.05267z" fill="url(#color-2)"/><path d="M92.04404,220.67196l0.7478,1.7107c-1.20059,0.76747 -5.28911,3.47413 -6.38789,3.956c-0.68789,0.51702 -1.90356,1.37676 -2.71714,1.65065l-0.23833,-0.28414c-0.93105,0.31343 -2.67349,1.1102 -3.4916,1.61257c-0.70283,0.39252 -1.49985,0.72939 -2.29468,0.31636c0.1062,-0.42768 0.24624,-0.40717 0.67998,-0.75576c0.5707,-0.35591 0.63853,-0.37202 1.0333,-0.8949l-0.0353,-0.14646c-0.83086,0.15086 -1.09995,0.61369 -1.8208,0.71914c2.4542,-2.20722 5.05415,-2.53676 8.00771,-3.83151c0.15659,-0.24606 5.94727,-3.75681 6.51694,-4.05267z" fill="#3d6c55"/><path d="M77.51938,228.55613c2.4542,-2.20722 5.05415,-2.53676 8.00771,-3.83151c-0.6041,0.87 -5.33218,3.49464 -6.57861,4.15959c-0.12949,0.06884 -0.44678,0.02197 -0.6063,-0.00586c0.5707,-0.35591 0.63853,-0.37202 1.0333,-0.8949l-0.0353,-0.14646c-0.83086,0.15086 -1.09995,0.61369 -1.8208,0.71914z" fill="#648e77"/><path d="M88.23706,115.66479c0.31685,1.05996 0.23657,3.09889 -0.33721,4.04871l0.11411,0.66217c0.40049,0.1075 0.67163,0.08261 1.01133,0.32105c-0.12407,0.83192 -0.25708,1.66471 -0.3498,2.50059c-0.13579,2.44024 -0.83613,4.97832 -0.70972,7.26009c0.10005,1.00958 0.14121,1.47768 0.40957,2.44786c0.0353,1.54461 -0.08862,1.66413 0.96284,2.71574l-0.20229,1.04473c-0.23101,1.05952 -0.58696,2.70886 -0.45,3.79313c1.1417,9.03729 5.35693,19.01005 13.38984,23.97079c0.19043,0.11717 0.22339,0.14207 0.36841,0.31929l-0.24302,0.30172c-0.9041,-0.00879 -2.07305,-2.29949 -3.97222,-1.14682c-3.82954,-2.97469 -9.52427,-11.99104 -9.87642,-16.89759c-0.31597,-0.48773 -0.55518,-0.7641 -0.64395,-1.33019c0.11646,-0.33701 0.09492,-0.20066 0.03955,-0.56828c-0.35039,-0.20168 -1.44639,-0.28561 -1.98545,-0.39326l0.27891,-1.13817l0.46978,-1.6278c0.43418,-2.69861 -0.15747,-5.48348 -0.15996,-8.22002c-0.03999,-6.07241 0.59238,-12.13062 1.88569,-18.06374z" fill="url(#color-3)"/><path d="M86.04155,143.57635l0.46978,-1.6278c0.61421,0.32295 0.66782,0.32456 0.99712,0.90412c0.34761,1.63103 1.31704,2.56606 0.84404,4.15358c-0.31597,-0.48773 -0.55518,-0.7641 -0.64395,-1.33019c0.11646,-0.33701 0.09492,-0.20066 0.03955,-0.56828c-0.35039,-0.20168 -1.44639,-0.28561 -1.98545,-0.39326z" fill="#2a513d"/><path d="M86.04155,143.57635l0.46978,-1.6278c0.61421,0.32295 0.66782,0.32456 0.99712,0.90412c-0.49468,0.62189 -0.68818,0.68941 -1.46689,0.72368z" fill="#2a513d"/><path d="M89.13589,136.66573c-0.4563,-0.11527 -0.48794,-0.09388 -0.86924,-0.39282c-0.94219,-1.75581 -0.77065,-3.92905 -0.30088,-5.81551c0.10005,1.00958 0.14121,1.47768 0.40957,2.44786c0.0353,1.54461 -0.08862,1.66413 0.96284,2.71574z" fill="#2a513d"/><path d="M87.89985,119.71351l0.11411,0.66217c0.40049,0.1075 0.67163,0.08261 1.01133,0.32105c-0.12407,0.83192 -0.25708,1.66471 -0.3498,2.50059c-0.52573,0.08436 -0.79307,0.13079 -1.17847,-0.22687c-0.0564,-0.66026 0.41001,-0.64225 0.40386,-0.82928c-0.02314,-0.70845 -0.20698,-1.72227 -0.00103,-2.42765z" fill="#1c3f2c"/><path d="M96.5644,98.59218c-0.17915,-1.00035 0.25342,-2.03044 1.35703,-2.10352c0.40957,0.2383 0.40913,0.20373 0.62651,0.61603l0.0249,0.21486c0.15791,0.29805 0.21475,0.43456 0.42026,0.70713c-0.52559,3.19673 -0.93354,4.6936 -1.89697,7.76876c-0.41162,1.8144 -2.02881,7.35939 -2.77822,9.00126c-1.29492,4.88122 -2.49888,9.78601 -3.61128,14.71205c-0.35962,1.53143 -0.95303,4.86203 -1.36846,6.11225c-1.05146,-1.05161 -0.92754,-1.17113 -0.96284,-2.71574c0.16377,-2.84697 1.16763,-4.55548 1.56416,-7.32981c1.53442,-7.74474 4.04619,-14.87052 6.16743,-22.43365c0.46113,-1.64392 1.02407,-2.88447 0.58125,-4.57891z" fill="#39624d"/><path d="M89.9395,125.57545c1.50322,-1.88719 1.22578,-1.59148 1.55859,-4.07815c0.23364,-0.28678 0.34409,-0.38007 0.47637,-0.72529c-0.2543,-0.1075 -0.27466,-0.12127 -0.50068,-0.28092c0.13931,-0.72954 0.21226,-1.72887 0.78208,-2.08975c0.24858,-0.1573 0.4002,-0.38432 0.51812,-0.6503c-0.0832,-0.39472 -0.11177,-0.41625 -0.06519,-0.80936l0.21812,-0.05976l0.31875,0.40556l0.16714,-0.10311c0.39023,-0.80643 0.24346,-1.2325 0.35742,-2.16416c-0.06489,-0.0785 -0.03838,-0.02622 -0.03765,-0.17151l0.58535,-0.05199c-1.29492,4.88122 -2.49888,9.78601 -3.61128,14.71205c-0.35962,1.53143 -0.95303,4.86203 -1.36846,6.11225c-1.05146,-1.05161 -0.92754,-1.17113 -0.96284,-2.71574c0.16377,-2.84697 1.16763,-4.55548 1.56416,-7.32981z" fill="#204531"/><path d="M96.5644,98.59218c-0.17915,-1.00035 0.25342,-2.03044 1.35703,-2.10352c0.40957,0.2383 0.40913,0.20373 0.62651,0.61603l0.0249,0.21486c0.15791,0.29805 0.21475,0.43456 0.42026,0.70713c-0.52559,3.19673 -0.93354,4.6936 -1.89697,7.76876c-0.51255,-2.09239 0.83643,-6.15516 -0.03164,-7.28367l-0.37632,0.05112z" fill="#2a513d"/><path d="M98.57285,97.31955c-0.08672,0.7001 -0.00366,0.56213 -0.56074,0.92595c-0.61201,-0.00908 -0.33516,0.07074 -0.85972,-0.25617c-0.29546,-0.52127 -0.28228,-0.27374 -0.18501,-0.75063c0.52324,-0.4659 0.97925,-0.31519 1.58057,-0.13401z" fill="#204531"/><path d="M131.95005,197.23327c2.00625,0.51409 2.71084,-2.06808 4.58862,-1.0648c-2.27988,1.58035 -4.80454,3.07429 -7.21729,4.45691c-5.95957,3.41555 -11.76035,7.10499 -17.73823,10.48099c-0.83423,0.47162 -2.10146,1.29474 -2.92031,1.65065c-0.45498,0.34126 -6.47651,3.95014 -7.00591,4.20792c-0.27246,-0.68106 -0.24712,-0.73672 -0.74561,-1.21419l-0.70752,0.07763c3.04307,-2.00217 6.63633,-3.99555 9.8165,-5.85564c0.40459,-0.30758 1.04297,-0.62394 1.49941,-0.88757c3.31377,-1.90989 6.57686,-4.15812 10.04253,-5.77655c1.19341,-0.81288 3.02651,-1.73853 4.33125,-2.50454c1.83223,-1.07505 4.15269,-2.71398 6.05654,-3.5708z" fill="url(#color-4)"/><path d="M131.95005,197.23327c2.00625,0.51409 2.71084,-2.06808 4.58862,-1.0648c-2.27988,1.58035 -4.80454,3.07429 -7.21729,4.45691c-5.95957,3.41555 -11.76035,7.10499 -17.73823,10.48099c-0.83423,0.47162 -2.10146,1.29474 -2.92031,1.65065c0.31011,-0.72353 3.86851,-2.74181 4.75474,-3.4756c1.44053,-1.19076 2.45039,-0.61222 3.93867,-2.42545c0.86104,-0.52434 1.19092,-0.68252 2.12798,-1.05894c0.12539,-0.20798 0.25503,-0.41156 0.38892,-0.61369c0.48486,-0.725 0.76772,-0.64884 1.6752,-0.82752c0.18325,-0.46869 0.09214,-0.46722 0.01392,-1.04722c1.19341,-0.81288 3.02651,-1.73853 4.33125,-2.50454c1.83223,-1.07505 4.15269,-2.71398 6.05654,-3.5708z" fill="#2a513d"/><path d="M121.56226,203.30861c0.07822,0.58 0.16934,0.57853 -0.01392,1.04722c-0.90747,0.17869 -1.19033,0.10253 -1.6752,0.82752c-0.13389,0.20212 -0.26353,0.40571 -0.38892,0.61369c-0.93706,0.37641 -1.26694,0.53459 -2.12798,1.05894c-1.1354,0.43061 -2.59424,1.41924 -3.89092,1.77954c-0.39316,0.10838 -0.53247,1.01646 -1.23442,1.0399c-0.46406,0.14939 -0.60337,0.25778 -0.99053,0.55803c-0.45132,0.03515 -0.41968,0.02636 -0.83042,-0.17429l-0.38965,-0.08641c0.40459,-0.30758 1.04297,-0.62394 1.49941,-0.88757c3.31377,-1.90989 6.57686,-4.15812 10.04253,-5.77655z" fill="#39624d"/><path d="M278.79492,114.66327c0.69434,0.16799 0.84521,0.11922 1.15723,0.58307c-0.05713,1.13144 -2.89014,2.89106 -3.86719,3.42668c-0.92285,0.82503 -4.30664,4.14728 -5.23096,4.30927c-0.22705,0.74931 -0.19482,0.77948 -0.83643,1.15809c-0.31787,-0.4807 0.23291,-0.97575 -0.03076,-1.70646c-0.44824,-0.01523 -16.83984,9.49455 -18.70459,10.17078c0.01758,-0.00601 -3.02197,1.65358 -3.21387,1.78203l-0.06738,-0.52097c0.58447,-1.10668 1.3667,-0.09447 1.60107,-2.16108c1.56445,-1.03667 4.02979,-2.15522 5.76855,-3.10343c4.18506,-2.29671 8.35547,-4.61919 12.5127,-6.96731c2.66455,-1.51986 5.51367,-3.25517 8.00098,-5.0495c0.97705,-0.70493 1.85303,-1.33224 2.91064,-1.92117z" fill="#3d6c55"/><path d="M270.854,122.9823l-0.18311,-0.32823c0.36035,-0.45697 0.54346,-0.93942 0.98584,-1.46464c1.10889,-1.31789 2.82861,-2.03703 4.42822,-2.5164c-0.92285,0.82503 -4.30664,4.14728 -5.23096,4.30927z" fill="#2a513d"/><path d="M115.88613,114.64232c0.0564,-0.30743 0.12158,-0.48275 0.21826,-0.77846c0.78779,-0.65323 1.31953,-0.37275 2.07466,0.22101c0.54067,0.92946 0.74165,1.43198 1.13921,2.44288c-0.52383,1.55574 1.03726,3.73631 1.36362,5.05273c0.3186,1.28479 -0.4563,0.70259 0.58286,2.50146l-0.12744,0.24049c0.77769,1.63952 2.59541,10.48216 2.73296,12.44639c-0.54507,1.45586 1.05923,2.61248 -0.3813,3.03459c-0.25972,0.07616 -0.35845,0.16228 -0.55195,0.34741c-0.52896,-4.78777 -2.4835,-10.49051 -3.46934,-15.21061c-0.71309,-2.05797 -1.10801,-4.58551 -1.8728,-6.66955c-0.52236,-1.42349 -1.44814,-2.01784 -1.70874,-3.62836z" fill="#1c3f2c"/><path d="M115.88613,114.64232c0.0564,-0.30743 0.12158,-0.48275 0.21826,-0.77846c0.78779,-0.65323 1.31953,-0.37275 2.07466,0.22101c-0.56895,0.23976 -0.63809,0.35049 -1.02964,0.83236c-0.5354,0.11161 -0.68555,-0.05639 -1.26328,-0.27491z" fill="#39624d"/><path d="M123.87026,136.76884c1.60093,6.66017 2.48013,13.32635 3.08481,20.13255c0.11411,2.10176 0.02505,8.51397 1.00444,9.83654l-0.82456,0.00879c-0.42393,-0.25338 -0.49102,-0.57268 -0.81445,-0.96813c-0.32607,-0.00586 -0.65186,-0.02197 -0.9772,-0.0454c-0.34585,-0.26071 -0.35698,-0.22848 -0.48823,-0.63126l0.64966,-0.14939c0.4229,-2.61878 -0.26221,-7.73478 -0.27686,-10.48538c-0.19907,-0.51116 -0.52163,-4.1962 -0.65332,-5.11307c-0.44897,-3.08381 -0.99507,-6.15326 -1.63755,-9.20323c0.19351,-0.18513 0.29224,-0.27125 0.55195,-0.34741c1.44053,-0.42211 -0.16377,-1.57874 0.3813,-3.03459z" fill="#204531"/><path d="M88.23706,115.66479c0.10239,-0.97311 0.67002,-2.76891 0.96812,-3.83912c1.44565,-5.17239 3.1604,-10.40248 6.38115,-14.76976c1.42134,-1.92718 3.49351,-1.43828 3.40679,0.97077c-0.20552,-0.27257 -0.26235,-0.40907 -0.42026,-0.70713l-0.0249,-0.21486c-0.21738,-0.4123 -0.21694,-0.37773 -0.62651,-0.61603c-1.10361,0.07309 -1.53618,1.10317 -1.35703,2.10352c-3.14722,3.921 -6.97866,16.90682 -7.53911,22.10454c-0.3397,-0.23844 -0.61084,-0.21355 -1.01133,-0.32105l-0.11411,-0.66217c0.57378,-0.94982 0.65405,-2.98875 0.33721,-4.04871z" fill="url(#color-5)"/><path d="M172.66699,147.58479c4.15723,-1.76182 11.04199,-7.69729 14.23096,-11.14447c0.90088,-1.12807 1.87793,-2.60531 2.5459,-3.8898c0.71631,-1.37823 2.69531,-1.66647 2.78467,-0.24064l-0.01172,0.09374c-0.16992,1.18343 -0.62988,1.44634 -1.48682,2.32966c-0.31348,0.44686 -1.38574,1.9635 -1.81348,2.24208c-1.20117,1.59998 -4.80469,5.04936 -6.39111,6.24583c-0.89941,-0.19831 -0.72949,-0.09857 -1.58057,0.36499c-2.12549,1.15663 -5.74072,4.82322 -8.27783,3.99862z" fill="#39624d"/><path d="M188.9165,136.97535l-0.12744,-0.13475l0.06885,-0.19392l-0.23145,-0.28883c-0.09375,-0.94601 1.22021,-1.63 1.59375,-2.36804c0.40869,-0.8079 -0.31494,-0.54338 -0.51709,-1.16791l0.31494,-0.36499c0.76172,-0.34434 1.38574,-0.267 2.21045,-0.14705l-0.01172,0.09374c-0.16992,1.18343 -0.62988,1.44634 -1.48682,2.32966c-0.31348,0.44686 -1.38574,1.9635 -1.81348,2.24208z" fill="#2a513d"/><path d="M190.72998,134.73328c-0.25049,-0.59362 -0.05273,-1.69166 0.26367,-2.24676c0.40869,-0.23595 0.73828,-0.13431 1.22314,-0.0829c-0.16992,1.18343 -0.62988,1.44634 -1.48682,2.32966z" fill="#1c3f2c"/><path d="M249.60205,131.70469c-0.23437,2.06661 -1.0166,1.0544 -1.60107,2.16108l0.06738,0.52097c-1.47363,0.93547 -3.05273,1.775 -4.59668,2.593c-4.91309,2.60487 -9.54199,5.43954 -14.51514,7.96048c0.19629,-0.4889 1.46045,-1.2612 1.9292,-1.49452c0.44531,-0.65338 0.45996,-0.8492 0.56689,-1.64392c3.80273,-1.90697 7.25537,-4.18214 11.03467,-6.11445c2.1416,-1.09467 5.16064,-2.59872 7.11475,-3.98266z" fill="#39624d"/><path d="M100.20381,215.82838l0.70752,-0.07763c0.49849,0.47747 0.47314,0.53313 0.74561,1.21419c-2.92339,1.89964 -5.97949,3.55322 -8.86509,5.41772l-0.7478,-1.7107c2.38125,-1.28889 6.03984,-3.86812 8.15977,-4.84358z" fill="url(#color-6)"/><path d="M144.21899,191.2048c0.55503,-0.6254 1.60884,-1.43096 2.43677,-1.48661l0.02783,0.11717c-1.22036,1.07212 -1.43657,0.08348 -2.27461,1.9758c-1.42251,0.94616 -6.41719,3.78024 -7.87031,4.35731c-1.87778,-1.00328 -2.58237,1.57889 -4.58862,1.0648c2.91826,-1.74439 4.56592,-2.74474 7.61177,-4.41736c1.02524,-0.70303 1.70273,-1.13949 2.78994,-1.73267c0.56382,0.03515 1.32305,0.05859 1.86724,0.12157z" fill="url(#color-7)"/><path d="M142.35176,191.08323c0.56382,0.03515 1.32305,0.05859 1.86724,0.12157c-2.44072,0.14646 -1.70933,1.6404 -4.65718,1.61111c1.02524,-0.70303 1.70273,-1.13949 2.78994,-1.73267z" fill="#3d6c55"/><path d="M225.8291,144.9354c0.6123,-0.43822 4.95264,-2.83789 5.62354,-3.1336c-0.10693,0.79472 -0.12158,0.99054 -0.56689,1.64392c-0.46875,0.23332 -1.73291,1.00562 -1.9292,1.49452c-0.90088,0.74301 -3.89941,2.25643 -5.00098,2.81592c-0.09521,-0.21823 -0.20068,-0.61661 -0.375,-0.64298c-1.45898,-0.22848 -2.16211,1.36212 -3.63135,0.87586c0.50977,-0.3896 5.11084,-2.70168 5.87988,-3.05363z" fill="#4f7a65"/><path d="M225.8291,144.9354c0.6123,-0.43822 4.95264,-2.83789 5.62354,-3.1336c-0.10693,0.79472 -0.12158,0.99054 -0.56689,1.64392c-0.06299,-0.0104 -0.76172,-0.1264 -0.76172,-0.1264c-1.34766,0.27989 -2.8418,2.10982 -4.29492,1.61609z" fill="#648e77"/><path d="M59.86538,230.72967c0.76626,-0.64298 2.04756,-1.85277 3.04028,-1.80005c0.42642,0.30465 0.29546,0.10838 0.43125,0.59025c-0.54521,2.03878 -7.89565,5.99918 -5.68037,1.31525c1.1688,-0.26949 0.94438,-0.03808 2.02998,0.13768z" fill="url(#color-8)"/><path d="M248.18408,151.44559c0.03369,-0.27242 0.20947,-1.61697 0.28564,-1.71656c0.77197,-1.02672 4.50879,-4.20001 5.49902,-4.57306l0.0249,0.20651c-0.34277,0.54704 -2.25879,3.33104 -2.65723,3.70306c-0.85693,-0.05859 -2.68066,1.68288 -3.15234,2.38005z" fill-opacity="0.98824" fill="#2a513d"/><path d="M248.18408,151.44559c0.47168,-0.69717 2.29541,-2.43863 3.15234,-2.38005l-0.09961,0.13328c-0.63721,0.87146 -1.15869,2.61585 -2.24707,2.85898c-0.31934,0.07177 -0.70752,-0.27975 -0.80566,-0.61222z" fill="#1c3f2c"/></g></svg></svg>